<?xml version="1.0" encoding="utf-8"?>
<svg version="1.1" id="Warstwa_1" xmlns="http://www.w3.org/2000/svg" xmlns:xlink="http://www.w3.org/1999/xlink" x="0px" y="0px"
     width="95px" height="354.4px" viewBox="0 0 95 354.4" style="enable-background:new 0 0 95 354.4;" xml:space="preserve">
<g>
    <path d="M94.9,135.9c0.2-0.7,0.2-1.5,0-2.3c-0.2-0.7-0.4-1.4-0.7-2.1c-0.1-0.2-0.1-0.4-0.1-0.6c-0.4-1-0.9-2-1-3.1
        c-0.1-0.5,0-0.9,0-1.4c0-0.2,0-0.3,0-0.5c0-0.4,0.1-0.8,0.1-1.3c0.1-1.5,0.2-2.9,0.1-4.4c0-1-0.1-2-0.2-3c-0.1-2.1-0.1-4.1-0.3-6.2
        c-0.2-2.2-0.5-4.4-0.7-6.7c-0.2-2.2-0.4-4.3-0.6-6.5c-0.2-2.6-0.6-5.2-1.1-7.8c-0.1-0.4,0-0.8-0.1-1.2c-0.3-2-0.7-4-1.1-6
        c-0.1-0.8-0.2-1.7-0.3-2.5c-0.3-1.6-0.7-3.3-1.2-4.8c-0.4-1.2-1-2.4-1.8-3.4c-0.2-0.2-0.4-0.4-0.6-0.6c-0.2-0.8-0.4-1.6-0.6-2.4
        c-0.3-0.9-0.7-1.7-1.3-2.6c-0.6-0.8-1.5-1.6-2.6-1.6C80,64.9,79.5,65,79,65c-0.5,0-1.1-0.1-1.6-0.3c-0.8-0.3-1.5-0.8-2.2-1.2
        L73.1,62c-0.8-0.6-1.6-1.2-2.4-1.8c-1.7-1.3-3.5-2.2-5.4-3c0,0,0,0-0.1,0c-0.1-0.1-0.2-0.2-0.2-0.3c-0.3-0.5-0.6-1-0.8-1.5
        c-0.1-0.3-0.2-0.7-0.2-1c-0.1-0.6-0.4-1.1-0.8-1.5c0-0.8,0-1.5,0.1-2.3c0-0.5,0.2-1,0.4-1.5c0.2-0.6,0.3-1.2,0.3-1.9
        c0.1-0.1,0.3-0.2,0.4-0.3c0.6-0.4,1.2-0.7,1.7-1.2c0.6-0.5,1-1.1,1.4-1.7c0.4-0.6,0.9-1.1,1.3-1.7c0.5-0.7,0.9-1.5,1.2-2.3
        c0-0.1,0.2-0.2,0.3-0.3c0.1-0.4,0.3-0.7,0.4-1.1c0.4,0,0.8-0.1,1.2-0.2c0.3-0.1,0.5-0.3,0.8-0.4c0.6-0.2,1.1-0.6,1.5-1.1
        c0.4-0.5,0.6-1.2,0.9-1.7c0.2-0.6,0.5-1.1,0.8-1.7c0.3-0.7,0.5-1.4,0.6-2.2c0-0.1,0.2-0.2,0.2-0.3c0.1-0.6,0.1-1.2,0.1-1.8
        c0-0.2,0.1-0.5,0.1-0.7c0-0.2,0-0.5,0-0.7c0-0.1,0-0.2,0-0.3c0.1-0.2,0.2-0.3,0.3-0.5c0.3-0.6,0.6-1.2,0.8-1.9l0.1,0l0.3-0.1
        c0.2-0.1,0.4-0.2,0.7-0.3c0.5-0.3,0.7-0.5,1-0.8c0.4-0.5,0.7-1.1,0.9-1.7c0.1,0.2,0.1,0.4,0.2,0.6l0.1,0.3l0.1,0.2c0,0.1,0,0,0.1,0
        l0.1-0.1c0.1-0.1,0.3-0.2,0.3-0.2l0.2-0.2c0.8-0.9,1.1-2.1,1.1-3.2c0-1.1-0.1-2.2-0.3-3.4c-0.4-2.7-1.4-5.2-2.9-7.6
        c-0.2-0.3-0.3-0.7-0.5-1.1C78,6,76.6,4.5,75,3.1c-0.7-0.6-1.3-1.2-2-1.7C71.5,0.5,69.8,0,68.1,0c-1.3,0-2.6,0.5-3.8,1.1
        c-0.2,0.1-0.4,0.2-0.6,0.4c0,0-0.1-0.1-0.1-0.1c-0.9-0.6-2-1-3-1.1c-0.7-0.1-1.5,0-2.2,0.1c-1.5,0.1-3,0.5-4.3,1.1
        c-1.5,0.7-2.8,1.5-4.2,2.3c-1.3,0.8-2.7,1.5-4,2.4c-1.6,1-3.1,2.1-4.3,3.6c-0.2,0.2-0.5,0.3-0.6,0.6c-0.9,1.2-1.6,2.5-1.9,4
        c-0.1,0.6-0.3,1.2-0.3,1.8c0,1.2,0.3,2.4,0.7,3.5c0.3,1,0.7,2,1.2,2.9c-0.1,0.1-0.1,0.1-0.2,0.2c-0.3,0.3-0.4,0.6-0.5,0.9
        c-0.3,0.6-0.4,1.3-0.4,2c0,0.7,0.3,1.4,0.4,2.1c0.2,0.7,0.4,1.3,0.6,2c0.3,0.8,0.8,1.5,1.4,2c0.1,0.1,0.1,0.3,0.2,0.3
        c0.5,0.4,1,0.8,1.6,1.1c0.2,0.1,0.3,0.3,0.5,0.4c0,0.3,0,0.5,0,0.8c0,0.3,0.1,0.6,0.1,0.9c0,0.6-0.1,1.2-0.1,1.8c0,0.7,0.1,1.3,0,2
        c-0.1,0.6-0.2,1.3-0.4,1.9c-0.2,0.8-0.3,1.5-0.4,2.3c0,0.1-0.2,0.2-0.2,0.3c-0.1,0.6-0.2,1.2-0.3,1.8c0,0-0.1,0-0.1-0.1
        C42.8,45.1,42.4,45,42,45c-0.3,0-0.5,0.1-0.8,0.1c-0.5,0-1.1,0-1.6,0.1c-0.3,0.1-0.6,0.1-0.9,0.3c-0.3,0.2-0.5,0.5-0.5,0.8
        c-0.1,0.5-0.3,1.1-0.5,1.6c-0.2,0.6-0.4,1.3-0.4,1.9c0,0.1-0.2,0.2-0.2,0.3c-0.1,0.5-0.2,1-0.2,1.5c0,0.1-0.1,0.2-0.1,0.3
        c0,0-0.1,0-0.1,0c-0.6,0.3-1.3,0.6-1.9,0.9c-0.4,0.2-0.8,0.5-1.2,0.8c-0.9,0.5-1.7,0.9-2.6,1.4c-0.9,0.5-1.8,1.1-2.7,1.6
        c-0.9,0.5-1.8,0.9-2.7,1.4c-1.1,0.5-2.2,1.1-3.3,1.6c-0.2,0.1-0.4,0-0.5,0.1c-0.9,0.3-1.8,0.5-2.7,0.5c-0.4,0-0.8-0.2-1.2-0.2
        c-0.9,0-1.6,0.6-2.1,1.2c-0.4,0.5-0.7,1-0.9,1.6c-0.1,0-0.3,0-0.4,0.1c-0.8,0.2-1.6,0.5-2.4,0.9C10.4,64.8,9,66.5,8,68.4
        c-0.7,1.2-1,2.6-1.5,3.9c-0.8,2.7-1.5,5.5-2,8.4c-0.5,3.1-0.8,6.2-1.1,9.2c-0.3,3-0.5,6-0.7,9c-0.3,3.6-0.4,7.3-0.5,10.9
        c0,0.5-0.2,1.1-0.2,1.6c-0.1,2.8-0.3,5.6-0.5,8.4c-0.1,1.2-0.4,2.3-0.5,3.5c-0.1,1.1-0.3,2.3-0.5,3.4c-0.2,1.1-0.5,2.3-0.4,3.5
        c0.1,0.9,0.5,1.8,1,2.5c0.6,0.7,1.2,1.3,1.8,2c0.1,0.1,0.2,0.2,0.3,0.3c0,0.2,0.1,0.5,0.1,0.7c0.1,0.3,0.2,0.5,0.3,0.8
        c0.1,0.6,0.1,1.2,0.1,1.8c0.1,0.6,0.2,1.3,0.1,1.9c0,0.6-0.2,1.3-0.3,1.9c-0.2,0.7-0.2,1.5-0.1,2.3c0,0.1-0.1,0.2-0.1,0.4
        c0.1,0.6,0.3,1.2,0.6,1.8c0.1,0.2,0.2,0.5,0.3,0.7c0.3,0.4,0.8,0.7,1.2,1c0,0,0.1,0.1,0.1,0.1c0,0.3-0.1,0.5-0.1,0.8
        c-0.1,0.9-0.2,1.8-0.2,2.7c0,0.6,0.1,1.2,0,1.8L5,155.5c0,0.6-0.1,1.3,0.1,2c0.3,0.8,0.9,1.3,1.5,1.6c0.6,0.4,1.3,0.6,1.9,0.9
        c1.2,0.6,2.4,1.3,3.5,1.9c0.3,0.2,0.7,0.4,0.9,0.7c0.2,0.3,0.4,0.6,0.5,0.9c0.1,0.7,0.2,1.6,0.4,2.4c0.1,0.2,0,0.5,0,0.7
        c0.3,1.3,0.8,2.4,1.3,3.6c0.1,0.2,0.2,0.5,0.3,0.8c0.2,0.3,0.5,0.4,0.9,0.3c0.3-0.1,0.5-0.2,0.8-0.4l0.7-0.4
        c0.1-0.1,0.2-0.1,0.3-0.2c-0.1,0.6-0.2,1.2-0.3,1.8c-0.3,1.8-0.4,3.7-0.5,5.6c-0.1,1.3,0,2.5,0,3.8c-0.1,2.6-0.1,5.2,0,7.8
        c0.1,2.8,0.5,5.6,0.8,8.5c0.3,2.7,0.6,5.5,1,8.2c0.4,3.3,1,6.5,1.6,9.8c0.1,0.5,0,1,0.1,1.5c0.3,2.5,0.7,5.1,0.8,7.7
        c0,1.1-0.1,2.1-0.1,3.2c0,2.1-0.1,4.2-0.2,6.3c-0.1,1.9-0.1,3.9,0.2,5.9c-0.3,0.5-0.6,1-0.8,1.6c-1,2.2-1.8,4.6-2.3,6.9
        c-0.3,1.6-0.5,3.2-0.7,4.9c-0.5,3.4-0.7,6.8-0.7,10.2l0,11c0,3.6-0.1,7.1-0.3,10.7c-0.2,4.3-0.2,8.6-0.2,12.9
        c0,0.6-0.1,1.3-0.1,1.9l0,10c0,1.4-0.1,2.8-0.1,4.1l0,4.1l0,2l0,1c0,0.3,0,0.7,0.1,1.1c0.2,0.6,0.8,0.8,1.3,0.9
        c0.5,0.1,1,0.2,1.6,0.3c0.2,0,0.4,0.1,0.7,0.1c0,0,0,0.1,0,0.1c0,0.3,0,0.6,0,0.9c-0.1,0.6-0.2,1.3-0.1,1.9c0.1,0.7,0.2,1.4,0.4,2
        c0.1,0.6,0.2,1.3,0.4,2c0.2,0.8,0.5,1.5,1,2.2c0.1,0.1,0,0.3,0.1,0.4c0.1,0.2,0.3,0.4,0.4,0.6c-0.4,0.3-0.7,0.7-1,1.1
        c-0.4,0.7-0.6,1.4-0.6,2.2c0,0.8,0.3,1.6,0.6,2.2c0.2,0.4,0.5,0.8,0.6,1.2c0.2,0.4,0.2,0.9,0.2,1.3c-0.1,1-0.4,2-0.3,3
        c0,1,0.2,2.1,0.3,3.1c0.2,1.1,0.4,2.2,0.9,3.2c0.3,0.5,0.6,1,1.1,1.3c0.5,0.3,1.1,0.5,1.6,0.6c2.1,0.3,4.2,0.5,6.4,0.7
        c2.6,0.2,5.2,0.1,7.7-0.1c0.4,0,0.8,0.1,1.2,0c1-0.1,2-0.4,2.9-0.9c0.9-0.5,1.6-1.5,1.7-2.6c0.1-0.7,0-1.5-0.2-2.2
        c1.2,0.4,2.3,1,3.5,1.6c1,0.5,2,0.8,3.1,1.2c2.2,0.8,4.5,1.2,6.7,1.3c2.5,0.2,4.9,0.2,7.4,0.1c1.2,0,2.4-0.1,3.6-0.3
        c1.2-0.2,2.4-0.7,3.2-1.7c0.5-0.6,0.8-1.4,0.8-2.1c0-0.8-0.2-1.6-0.5-2.2c-0.7-1.4-1.8-2.4-3-3.2c-0.4-0.2-0.7-0.6-1-0.8
        c-1.9-1.1-4-2-5.2-3.9c-0.5-0.8-0.7-1.7-0.9-2.6c-0.6-1.7-1.2-3.4-1.7-5.2c-0.2-0.7-0.4-1.4-0.6-2c-0.3-0.7-0.7-1.3-1.3-1.7
        c-0.3-0.2-0.5-0.3-0.8-0.4c-0.1-0.1-0.2-0.3-0.2-0.4c-0.1-0.3-0.1-0.7-0.2-1c-0.1-0.4-0.3-0.7-0.4-1.1c-0.1-0.4-0.1-0.7-0.1-1.1
        c0-0.1,0-0.2,0-0.4c0.3-0.1,0.6-0.3,0.8-0.5c0.9-0.6,1.4-1.6,1.6-2.6c0.2-1,0.3-2,0.4-2.9c0.1-1.3,0.1-2.6,0.3-3.9
        c0.3-2.7,0.7-5.4,1-8.1c0.3-2.9,0.7-5.8,1.1-8.8c0.4-2.8,1-5.6,1.6-8.4c0.7-3.4,1.4-6.8,2-10.2c0.1-0.5,0.3-1,0.4-1.5
        c0.5-2.6,1-5.3,1.3-8c0.1-1.1,0.4-2.2,0.5-3.3c0.2-2.2,0.2-4.4,0.4-6.6c0.1-1.9,0.3-3.7,0.6-5.6c0.1-0.3,0.2-0.6,0.2-0.9
        c0.2-0.9,0.4-1.8,0.6-2.7c0.5-2.2,1-4.4,1.4-6.7c0.3-1.5,0.5-3,0.8-4.5l2-9.3c0.7-3.4,1.4-6.8,2.2-10.1c0.8-3.3,1.7-6.5,2.7-9.7
        c1.2-3.9,2.4-7.7,3.5-11.6c0.2-0.6,0.5-1.1,0.6-1.7c0.9-3,1.8-6,2.6-9.1c0.3-1.3,0.8-2.5,1.1-3.8c0.6-2.5,1-5,1.4-7.6
        c0.2-1.1,0.3-2.2,0.4-3.4c0.6-0.4,1.1-0.7,1.6-1.2c0.5-0.4,0.8-1,1.2-1.5c0.8-1.1,1.2-2.4,1.1-3.7c-0.1-1.4-0.6-2.7-0.8-4.1
        c-0.3-1.3-0.3-2.6,0.2-3.8c0.3-0.7,0.6-1.5,0.8-2.3c0.2-0.8,0.2-1.7,0.1-2.5c0-0.2,0-0.5,0-0.7c-0.2-0.7-0.4-1.3-0.7-1.9
        c0.5-0.4,1-0.9,1.3-1.5c0.3-0.5,0.4-1.1,0.5-1.6c0.3-1.1,0.3-2.3,0.2-3.5c-0.2-1.2-0.5-2.4-0.7-3.6c-0.1-0.6-0.1-1.2,0.2-1.7
        C94.3,137.1,94.7,136.6,94.9,135.9z M21.1,112.2c-0.1,7.5-0.1,15-0.2,22.5c-1.4-2.4-2-5.4-1.6-8.2c0.2-1.1,0.5-2.2,0.5-3.4
        c0-1-0.2-2-0.6-2.9c-0.3-0.6-0.7-1.3-0.6-1.9c0.1-0.5,0.3-0.9,0.6-1.3c1.2-2,1.9-4.4,1.9-6.7L21.1,112.2z M47.5,242.5
        c-0.1,3-0.2,5.9-0.5,8.9c-0.5,4.3-1.5,8.5-2.1,12.7c-1.4,9.3-1.2,18.8-1.9,28.2c-0.7,8.4-2.3,16.8-2.7,25.3c0,0.5,0,1.1,0.2,1.6
        c0.2,0.4,0.6,0.6,1.1,0.8c-0.5,2.7-0.7,5.4-0.7,8.2c0,0.6,0,1.2-0.5,1.6c-0.2,0.2-0.6,0.3-0.9,0.4c-0.7,0.3-1.3,0.7-1.8,1.3
        c-1-1.4-2-2.7-2.4-4.3c-0.2-0.8-0.2-1.7-0.4-2.5c0.1-0.2,0.1-0.4,0.1-0.6c0.1-2,0.2-4,0.3-6c0-1.9,0.1-3.8,0.3-5.7
        c1.1-14.2,5.2-28.3,4.6-42.6c-0.1-2.6-0.4-5.2-0.1-7.8c0.2-2,0.6-3.9,1.1-5.8c2.8-12,5-24.1,7.2-36.2C48,227.4,47.8,235,47.5,242.5
        z"/>
</g>
</svg>
